# Blender 5.0.1
# www.blender.org
o Cube
v 0.562541 0.375248 0.484365
v 0.562541 0.000000 0.484365
v 0.562541 0.375248 0.515635
v 0.562541 0.000000 0.515635
v 0.437459 0.375248 0.484365
v 0.437459 0.000000 0.484365
v 0.437459 0.375248 0.515635
v 0.437459 0.000000 0.515635
v 0.437459 0.343978 0.515635
v 0.437459 0.031271 0.515635
v 0.437459 0.031271 0.484365
v 0.437459 0.343978 0.484365
v 0.406188 0.031271 0.515635
v 0.406188 0.343978 0.515635
v 0.406188 0.343978 0.484365
v 0.406188 0.031271 0.484365
v 0.562541 0.031271 0.515635
v 0.562541 0.031271 0.484365
v 0.562541 0.343978 0.515635
v 0.562541 0.343978 0.484365
v 0.593812 0.343978 0.484365
v 0.593812 0.031271 0.484365
v 0.593812 0.343978 0.515635
v 0.593812 0.031271 0.515635
v 0.406188 0.062542 0.484365
v 0.406188 0.062542 0.515635
v 0.593812 0.062542 0.515635
v 0.593812 0.062542 0.484365
v 0.406188 0.312707 0.484365
v 0.406188 0.312707 0.515635
v 0.593812 0.312707 0.515635
v 0.593812 0.312707 0.484365
v 0.625083 0.312707 0.515635
v 0.625083 0.062542 0.515635
v 0.625083 0.312707 0.484365
v 0.625083 0.062542 0.484365
v 0.374917 0.312707 0.484365
v 0.374917 0.062542 0.484365
v 0.374917 0.062542 0.515635
v 0.374917 0.312707 0.515635
v 0.374917 0.093812 0.484365
v 0.374917 0.281436 0.484365
v 0.374917 0.093812 0.515635
v 0.374917 0.281436 0.515635
v 0.625083 0.093812 0.515635
v 0.625083 0.093812 0.484365
v 0.625083 0.281436 0.515635
v 0.625083 0.281436 0.484365
v 0.343647 0.281436 0.484365
v 0.343647 0.093812 0.484365
v 0.343647 0.093812 0.515635
v 0.343647 0.281436 0.515635
v 0.656353 0.281436 0.515635
v 0.656353 0.093812 0.515635
v 0.656353 0.281436 0.484365
v 0.656353 0.093812 0.484365
vn -0.0000 1.0000 -0.0000
vn -0.0000 -1.0000 -0.0000
vn -1.0000 -0.0000 -0.0000
vn 1.0000 -0.0000 -0.0000
vn -0.0000 -0.0000 1.0000
vn -0.0000 -0.0000 -1.0000
vt 0.600000 0.820000
vt 0.400000 0.870000
vt 0.400000 0.820000
vt 0.525000 0.820000
vt 0.475000 0.870000
vt 0.475000 0.820000
vt 0.475000 0.870000
vt 0.525000 0.870000
vt 0.400000 0.180000
vt 0.600000 0.130000
vt 0.600000 0.180000
vt 0.525000 0.870000
vt 0.525000 0.820000
vt 0.475000 0.820000
vt 0.525000 0.870000
vt 0.475000 0.870000
vt 0.475000 0.130000
vt 0.525000 0.180000
vt 0.475000 0.180000
vt 0.475000 0.820000
vt 0.475000 0.180000
vt 0.525000 0.130000
vt 0.525000 0.180000
vt 0.475000 0.180000
vt 0.686062 0.748082
vt 0.748082 0.686062
vt 0.748082 0.313938
vt 0.525000 0.820000
vt 0.685878 0.252163
vt 0.747837 0.314122
vt 0.747837 0.685878
vt 0.525000 0.130000
vt 0.475000 0.870000
vt 0.525000 0.820000
vt 0.525000 0.870000
vt 0.475000 0.130000
vt 0.475000 0.180000
vt 0.475000 0.870000
vt 0.475000 0.130000
vt 0.475000 0.820000
vt 0.475000 0.870000
vt 0.525000 0.130000
vt 0.805000 0.650000
vt 0.755000 0.350000
vt 0.805000 0.350000
vt 0.245000 0.650000
vt 0.195000 0.350000
vt 0.245000 0.350000
vt 0.600000 0.870000
vt 0.400000 0.130000
vt 0.525000 0.130000
vt 0.251918 0.313938
vt 0.189897 0.313938
vt 0.189897 0.686062
vt 0.251918 0.686062
vt 0.251918 0.748082
vt 0.313938 0.748082
vt 0.313938 0.251918
vt 0.251918 0.251918
vt 0.375959 0.189897
vt 0.313938 0.189897
vt 0.624041 0.127877
vt 0.375959 0.127877
vt 0.686062 0.251918
vt 0.686062 0.189897
vt 0.624041 0.189897
vt 0.748082 0.251918
vt 0.313938 0.810103
vt 0.375959 0.810103
vt 0.375959 0.872123
vt 0.624041 0.872123
vt 0.624041 0.810103
vt 0.686062 0.810103
vt 0.810103 0.686062
vt 0.810103 0.313938
vt 0.748082 0.748082
vt 0.475000 0.820000
vt 0.252163 0.685878
vt 0.190203 0.685878
vt 0.190203 0.314122
vt 0.252163 0.314122
vt 0.252163 0.252163
vt 0.314122 0.252163
vt 0.314122 0.747837
vt 0.252163 0.747837
vt 0.376081 0.809797
vt 0.314122 0.809797
vt 0.623919 0.871756
vt 0.376081 0.871756
vt 0.685878 0.747837
vt 0.685878 0.809797
vt 0.623919 0.809797
vt 0.747837 0.747837
vt 0.314122 0.190203
vt 0.376081 0.190203
vt 0.376081 0.128244
vt 0.623919 0.128244
vt 0.623919 0.190203
vt 0.685878 0.190203
vt 0.809797 0.314122
vt 0.809797 0.685878
vt 0.747837 0.252163
vt 0.475000 0.130000
vt 0.475000 0.820000
vt 0.755000 0.650000
vt 0.195000 0.650000
f 5/1/1 3/2/1 1/3/1
f 28/4/2 34/5/2 27/6/2
f 9/7/3 5/4/3 12/8/3
f 2/9/2 8/10/2 6/11/2
f 20/12/4 3/6/4 19/13/4
f 19/14/1 21/15/1 20/16/1
f 10/17/3 6/18/3 8/19/3
f 30/12/3 15/6/3 29/13/3
f 12/4/1 14/5/1 9/20/1
f 10/21/2 16/22/2 11/23/2
f 18/24/4 4/22/4 2/23/4
f 32/12/4 23/20/4 31/4/4
f 30/25/5 44/26/5 43/27/5
f 18/28/2 24/16/2 17/14/2
f 28/7/4 24/4/4 22/8/4
f 25/29/6 41/30/6 42/31/6
f 40/24/3 42/32/3 44/23/3
f 35/33/4 47/34/4 48/35/4
f 26/36/2 38/23/2 25/24/2
f 26/37/3 16/22/3 13/23/3
f 31/38/1 35/4/1 32/8/1
f 29/22/1 40/37/1 30/39/1
f 46/5/4 34/13/4 36/12/4
f 47/40/1 55/12/1 48/41/1
f 43/24/3 38/42/3 39/23/3
f 52/43/3 50/44/3 51/45/3
f 42/23/1 52/39/1 44/22/1
f 43/37/2 50/22/2 41/23/2
f 55/46/4 54/47/4 56/48/4
f 46/12/2 54/6/2 45/13/2
f 5/1/1 7/49/1 3/2/1
f 28/4/2 36/12/2 34/5/2
f 9/7/3 7/20/3 5/4/3
f 2/9/2 4/50/2 8/10/2
f 20/12/4 1/5/4 3/6/4
f 19/14/1 23/28/1 21/15/1
f 10/17/3 11/51/3 6/18/3
f 30/12/3 14/5/3 15/6/3
f 12/4/1 15/12/1 14/5/1
f 10/21/2 13/39/2 16/22/2
f 18/24/4 17/36/4 4/22/4
f 32/12/4 21/5/4 23/20/4
f 45/52/5 54/53/5 53/54/5
f 47/55/5 33/56/5 31/57/5
f 45/52/5 53/54/5 47/55/5
f 27/58/5 34/59/5 45/52/5
f 17/60/5 24/61/5 27/58/5
f 8/62/5 4/63/5 17/60/5
f 26/64/5 13/65/5 10/66/5
f 10/66/5 8/62/5 17/60/5
f 27/58/5 45/52/5 47/55/5
f 10/66/5 17/60/5 27/58/5
f 43/27/5 39/67/5 26/64/5
f 26/64/5 10/66/5 27/58/5
f 27/58/5 47/55/5 31/57/5
f 31/57/5 23/68/5 19/69/5
f 19/69/5 3/70/5 7/71/5
f 9/72/5 14/73/5 30/25/5
f 19/69/5 7/71/5 9/72/5
f 27/58/5 31/57/5 43/27/5
f 31/57/5 19/69/5 30/25/5
f 43/27/5 31/57/5 30/25/5
f 43/27/5 26/64/5 27/58/5
f 52/74/5 51/75/5 43/27/5
f 30/25/5 40/76/5 44/26/5
f 44/26/5 52/74/5 43/27/5
f 19/69/5 9/72/5 30/25/5
f 18/28/2 22/12/2 24/16/2
f 28/7/4 27/77/4 24/4/4
f 48/78/6 55/79/6 56/80/6
f 46/81/6 36/82/6 28/83/6
f 48/78/6 56/80/6 46/81/6
f 32/84/6 35/85/6 48/78/6
f 20/86/6 21/87/6 32/84/6
f 5/88/6 1/89/6 20/86/6
f 29/90/6 15/91/6 12/92/6
f 12/92/6 5/88/6 20/86/6
f 32/84/6 48/78/6 46/81/6
f 12/92/6 20/86/6 32/84/6
f 42/31/6 37/93/6 29/90/6
f 29/90/6 12/92/6 32/84/6
f 32/84/6 46/81/6 28/83/6
f 28/83/6 22/94/6 18/95/6
f 18/95/6 2/96/6 6/97/6
f 11/98/6 16/99/6 25/29/6
f 18/95/6 6/97/6 11/98/6
f 32/84/6 28/83/6 42/31/6
f 28/83/6 18/95/6 25/29/6
f 42/31/6 28/83/6 25/29/6
f 42/31/6 29/90/6 32/84/6
f 50/100/6 49/101/6 42/31/6
f 25/29/6 38/102/6 41/30/6
f 41/30/6 50/100/6 42/31/6
f 18/95/6 11/98/6 25/29/6
f 40/24/3 37/103/3 42/32/3
f 35/33/4 33/77/4 47/34/4
f 26/36/2 39/22/2 38/23/2
f 26/37/3 25/39/3 16/22/3
f 31/38/1 33/104/1 35/4/1
f 29/22/1 37/23/1 40/37/1
f 46/5/4 45/14/4 34/13/4
f 47/40/1 53/13/1 55/12/1
f 43/24/3 41/36/3 38/42/3
f 52/43/3 49/105/3 50/44/3
f 42/23/1 49/37/1 52/39/1
f 43/37/2 51/39/2 50/22/2
f 55/46/4 53/106/4 54/47/4
f 46/12/2 56/5/2 54/6/2
