# Blender 5.0.1
# www.blender.org
o Head
v 0.407521 0.438721 0.592394
v 0.407521 0.289638 0.592394
v 0.593875 0.438721 0.592394
v 0.593875 0.289638 0.592394
v 0.407521 0.438721 0.778749
v 0.407521 0.289638 0.778749
v 0.593876 0.438721 0.778749
v 0.593876 0.289638 0.778749
vn -0.0000 1.0000 -0.0000
vn 1.0000 -0.0000 -0.0000
vn -0.0000 -0.0000 1.0000
vn -0.0000 -1.0000 -0.0000
vn -0.0000 -0.0000 -1.0000
vn -1.0000 -0.0000 -0.0000
vt 0.578621 0.844737
vt 0.655757 0.999005
vt 0.578621 0.999005
vt 0.733883 0.842759
vt 0.656744 0.719743
vt 0.733883 0.719743
vt 0.655757 0.842759
vt 0.578621 0.719743
vt 0.655757 0.719743
vt 0.733883 0.999005
vt 0.656744 0.844737
vt 0.733883 0.844737
vt 0.812006 0.842759
vt 0.734870 0.719743
vt 0.812006 0.719743
vt 0.577631 0.842759
vt 0.500495 0.719743
vt 0.577631 0.719743
vt 0.655757 0.844737
vt 0.656744 0.842759
vt 0.578621 0.842759
vt 0.656744 0.999005
vt 0.734870 0.842759
vt 0.500495 0.842759
f 5/1/1 3/2/1 1/3/1
f 3/4/2 8/5/2 4/6/2
f 7/7/3 6/8/3 8/9/3
f 2/10/4 8/11/4 6/12/4
f 1/13/5 4/14/5 2/15/5
f 5/16/6 2/17/6 6/18/6
f 5/1/1 7/19/1 3/2/1
f 3/4/2 7/20/2 8/5/2
f 7/7/3 5/21/3 6/8/3
f 2/10/4 4/22/4 8/11/4
f 1/13/5 3/23/5 4/14/5
f 5/16/6 1/24/6 2/17/6
o Body
v 0.612511 0.205778 0.640846
v 0.612511 0.380894 0.577109
v 0.388885 0.205778 0.640846
v 0.388885 0.380894 0.577109
v 0.612511 0.078304 0.290614
v 0.612511 0.253420 0.226877
v 0.388885 0.078304 0.290614
v 0.388885 0.253420 0.226877
vn -0.0000 0.3420 0.9397
vn -1.0000 -0.0000 -0.0000
vn -0.0000 -0.3420 -0.9397
vn 1.0000 -0.0000 -0.0000
vn -0.0000 -0.9397 0.3420
vn -0.0000 0.9397 -0.3420
vt 0.249504 0.686508
vt 0.156748 0.532238
vt 0.249504 0.532238
vt 0.155758 0.686508
vt 0.000494 0.532238
vt 0.155758 0.532238
vt 0.499506 0.686508
vt 0.406645 0.532238
vt 0.499506 0.532238
vt 0.405825 0.686508
vt 0.250497 0.532238
vt 0.405825 0.532238
vt 0.250497 0.999009
vt 0.343257 0.688487
vt 0.250497 0.688487
vt 0.156748 0.688487
vt 0.249504 0.999009
vt 0.156748 0.999009
vt 0.156748 0.686508
vt 0.000494 0.686508
vt 0.406645 0.686508
vt 0.250497 0.686508
vt 0.343257 0.999009
vt 0.249504 0.688487
f 10/25/7 11/26/7 9/27/7
f 12/28/8 15/29/8 11/30/8
f 16/31/9 13/32/9 15/33/9
f 14/34/10 9/35/10 13/36/10
f 15/37/11 9/38/11 11/39/11
f 12/40/12 14/41/12 16/42/12
f 10/25/7 12/43/7 11/26/7
f 12/28/8 16/44/8 15/29/8
f 16/31/9 14/45/9 13/32/9
f 14/34/10 10/46/10 9/35/10
f 15/37/11 13/47/11 9/38/11
f 12/40/12 10/48/12 14/41/12
o Nose
v 0.519100 0.345778 0.797150
v 0.519100 0.382581 0.797150
v 0.482296 0.345778 0.797150
v 0.482296 0.382581 0.797150
v 0.519100 0.345778 0.760347
v 0.519100 0.382581 0.760347
v 0.482296 0.345778 0.760347
v 0.482296 0.382581 0.760347
vn -0.0000 -0.0000 1.0000
vn -1.0000 -0.0000 -0.0000
vn -0.0000 -0.0000 -1.0000
vn 1.0000 -0.0000 -0.0000
vn -0.0000 -1.0000 -0.0000
vn -0.0000 1.0000 -0.0000
vt 0.516121 0.657242
vt 0.530757 0.686504
vt 0.516121 0.686504
vt 0.500494 0.686504
vt 0.515129 0.657242
vt 0.515129 0.686504
vt 0.547370 0.657242
vt 0.562007 0.686504
vt 0.547370 0.686504
vt 0.531744 0.686504
vt 0.546384 0.657242
vt 0.546383 0.686504
vt 0.531744 0.688000
vt 0.546383 0.718000
vt 0.531744 0.718000
vt 0.530757 0.718000
vt 0.516121 0.688000
vt 0.530757 0.688000
vt 0.530757 0.657242
vt 0.500494 0.657242
vt 0.562007 0.657242
vt 0.531744 0.657242
vt 0.546383 0.688000
vt 0.516121 0.718000
f 18/49/13 19/50/13 17/51/13
f 20/52/14 23/53/14 19/54/14
f 24/55/15 21/56/15 23/57/15
f 22/58/16 17/59/16 21/60/16
f 23/61/17 17/62/17 19/63/17
f 20/64/18 22/65/18 24/66/18
f 18/49/13 20/67/13 19/50/13
f 20/52/14 24/68/14 23/53/14
f 24/55/15 22/69/15 21/56/15
f 22/58/16 18/70/16 17/59/16
f 23/61/17 21/71/17 17/62/17
f 20/64/18 18/72/18 22/65/18
o Left_Leg
v 0.649782 0.101353 0.461472
v 0.649782 0.241445 0.410482
v 0.575240 0.101353 0.461472
v 0.575240 0.241445 0.410482
v 0.649782 0.037616 0.286355
v 0.649782 0.177708 0.235366
v 0.575240 0.037616 0.286355
v 0.575240 0.177708 0.235366
vn -0.0000 0.3420 0.9397
vn -1.0000 -0.0000 -0.0000
vn -0.0000 -0.3420 -0.9397
vn 1.0000 -0.0000 -0.0000
vn -0.0000 -0.9397 0.3420
vn -0.0000 0.9397 -0.3420
vt 0.577633 0.250989
vt 0.547370 0.250989
vt 0.547369 0.374011
vt 0.469243 0.250989
vt 0.546383 0.250989
vt 0.546383 0.374011
vt 0.687008 0.250989
vt 0.656743 0.250989
vt 0.656743 0.374011
vt 0.578619 0.250989
vt 0.655756 0.250989
vt 0.655756 0.374011
vt 0.578619 0.530262
vt 0.608883 0.530262
vt 0.608883 0.375986
vt 0.547369 0.375986
vt 0.577632 0.375986
vt 0.577632 0.530262
vt 0.577632 0.374011
vt 0.469243 0.374011
vt 0.687008 0.374011
vt 0.578619 0.374011
vt 0.578619 0.375986
vt 0.547369 0.530262
f 27/73/19 25/74/19 26/75/19
f 31/76/20 27/77/20 28/78/20
f 29/79/21 31/80/21 32/81/21
f 25/82/22 29/83/22 30/84/22
f 25/85/23 27/86/23 31/87/23
f 30/88/24 32/89/24 28/90/24
f 27/73/19 26/75/19 28/91/19
f 31/76/20 28/78/20 32/92/20
f 29/79/21 32/81/21 30/93/21
f 25/82/22 30/84/22 26/94/22
f 25/85/23 31/87/23 29/95/23
f 30/88/24 28/90/24 26/96/24
o Right_Leg
v 0.426156 0.101353 0.461472
v 0.426156 0.241445 0.410482
v 0.351614 0.101353 0.461472
v 0.351614 0.241445 0.410482
v 0.426156 0.037616 0.286355
v 0.426156 0.177708 0.235366
v 0.351614 0.037616 0.286355
v 0.351614 0.177708 0.235366
vn -0.0000 0.3420 0.9397
vn -1.0000 -0.0000 -0.0000
vn -0.0000 -0.3420 -0.9397
vn 1.0000 -0.0000 -0.0000
vn -0.0000 -0.9397 0.3420
vn -0.0000 0.9397 -0.3420
vt 0.358883 0.374011
vt 0.328622 0.250989
vt 0.358883 0.250989
vt 0.327633 0.374011
vt 0.250494 0.250989
vt 0.327633 0.250989
vt 0.468258 0.374011
vt 0.437994 0.250989
vt 0.468258 0.250989
vt 0.437007 0.374011
vt 0.359869 0.250989
vt 0.437008 0.250989
vt 0.390133 0.530262
vt 0.359869 0.375986
vt 0.390133 0.375986
vt 0.358883 0.530262
vt 0.328622 0.375986
vt 0.358883 0.375986
vt 0.328622 0.374011
vt 0.250493 0.374011
vt 0.437994 0.374011
vt 0.359869 0.374011
vt 0.359869 0.530262
vt 0.328622 0.530262
f 34/97/25 35/98/25 33/99/25
f 36/100/26 39/101/26 35/102/26
f 40/103/27 37/104/27 39/105/27
f 38/106/28 33/107/28 37/108/28
f 39/109/29 33/110/29 35/111/29
f 36/112/30 38/113/30 40/114/30
f 34/97/25 36/115/25 35/98/25
f 36/100/26 40/116/26 39/101/26
f 40/103/27 38/117/27 37/104/27
f 38/106/28 34/118/28 33/107/28
f 39/109/29 37/119/29 33/110/29
f 36/112/30 34/120/30 38/113/30
o Left_Paw
v 0.649782 0.000415 0.543941
v 0.649782 0.037686 0.543941
v 0.575240 0.000415 0.543941
v 0.575240 0.037686 0.543941
v 0.649782 0.000415 0.283045
v 0.649782 0.037686 0.283045
v 0.575240 0.000415 0.283045
v 0.575240 0.037686 0.283045
vn -0.0000 -0.0000 1.0000
vn -1.0000 -0.0000 -0.0000
vn -0.0000 -0.0000 -1.0000
vn 1.0000 -0.0000 -0.0000
vn -0.0000 -1.0000 -0.0000
vn -0.0000 1.0000 -0.0000
vt 0.546385 0.030266
vt 0.516118 0.000985
vt 0.546385 0.000985
vt 0.515134 0.030266
vt 0.406745 0.000985
vt 0.515134 0.000985
vt 0.687009 0.030266
vt 0.656744 0.000985
vt 0.687009 0.000985
vt 0.655759 0.030266
vt 0.547369 0.000985
vt 0.655759 0.000985
vt 0.547369 0.249016
vt 0.577632 0.032239
vt 0.547369 0.032239
vt 0.516118 0.032239
vt 0.546385 0.249016
vt 0.516118 0.249016
vt 0.516118 0.030266
vt 0.406745 0.030266
vt 0.656744 0.030266
vt 0.547369 0.030266
vt 0.577632 0.249016
vt 0.546385 0.032239
f 42/121/31 43/122/31 41/123/31
f 44/124/32 47/125/32 43/126/32
f 48/127/33 45/128/33 47/129/33
f 46/130/34 41/131/34 45/132/34
f 47/133/35 41/134/35 43/135/35
f 44/136/36 46/137/36 48/138/36
f 42/121/31 44/139/31 43/122/31
f 44/124/32 48/140/32 47/125/32
f 48/127/33 46/141/33 45/128/33
f 46/130/34 42/142/34 41/131/34
f 47/133/35 45/143/35 41/134/35
f 44/136/36 42/144/36 46/137/36
o Right_Paw
v 0.426156 0.000415 0.543941
v 0.426156 0.037686 0.543941
v 0.351614 0.000415 0.543941
v 0.351614 0.037686 0.543941
v 0.426156 0.000415 0.283045
v 0.426156 0.037686 0.283045
v 0.351614 0.000415 0.283045
v 0.351614 0.037686 0.283045
vn -0.0000 -0.0000 1.0000
vn -1.0000 -0.0000 -0.0000
vn -0.0000 -0.0000 -1.0000
vn 1.0000 -0.0000 -0.0000
vn -0.0000 -1.0000 -0.0000
vn -0.0000 1.0000 -0.0000
vt 0.265132 0.030267
vt 0.234871 0.000985
vt 0.265132 0.000985
vt 0.233883 0.030267
vt 0.125494 0.000985
vt 0.233883 0.000985
vt 0.405758 0.030267
vt 0.375495 0.000985
vt 0.405758 0.000985
vt 0.374507 0.030267
vt 0.266118 0.000985
vt 0.374507 0.000985
vt 0.266118 0.249016
vt 0.296383 0.032239
vt 0.266118 0.032239
vt 0.234871 0.032239
vt 0.265132 0.249016
vt 0.234871 0.249016
vt 0.234871 0.030267
vt 0.125494 0.030266
vt 0.375495 0.030267
vt 0.266118 0.030267
vt 0.296383 0.249016
vt 0.265132 0.032239
f 50/145/37 51/146/37 49/147/37
f 52/148/38 55/149/38 51/150/38
f 56/151/39 53/152/39 55/153/39
f 54/154/40 49/155/40 53/156/40
f 55/157/41 49/158/41 51/159/41
f 52/160/42 54/161/42 56/162/42
f 50/145/37 52/163/37 51/146/37
f 52/148/38 56/164/38 55/149/38
f 56/151/39 54/165/39 53/152/39
f 54/154/40 50/166/40 49/155/40
f 55/157/41 53/167/41 49/158/41
f 52/160/42 50/168/42 54/161/42
o Left_Hand
v 0.649782 0.013288 0.668699
v 0.649782 0.270221 0.623394
v 0.575240 0.013288 0.668699
v 0.575240 0.270221 0.623394
v 0.649782 0.000344 0.595289
v 0.649782 0.257277 0.549985
v 0.575240 0.000344 0.595289
v 0.575240 0.257277 0.549985
vn -0.0000 0.1736 0.9848
vn -1.0000 -0.0000 -0.0000
vn -0.0000 -0.1736 -0.9848
vn 1.0000 -0.0000 -0.0000
vn -0.0000 -0.9848 0.1736
vn -0.0000 0.9848 -0.1736
vt 0.187010 0.467761
vt 0.156747 0.250989
vt 0.187010 0.250989
vt 0.155759 0.467761
vt 0.125495 0.250989
vt 0.155759 0.250989
vt 0.249509 0.467761
vt 0.219244 0.250989
vt 0.249509 0.250989
vt 0.218262 0.467761
vt 0.187996 0.250989
vt 0.218262 0.250989
vt 0.187996 0.469735
vt 0.218262 0.530259
vt 0.187996 0.530259
vt 0.156747 0.469735
vt 0.187010 0.530259
vt 0.156747 0.530259
vt 0.156747 0.467761
vt 0.125495 0.467761
vt 0.219244 0.467761
vt 0.187996 0.467761
vt 0.218262 0.469735
vt 0.187010 0.469735
f 58/169/43 59/170/43 57/171/43
f 60/172/44 63/173/44 59/174/44
f 64/175/45 61/176/45 63/177/45
f 62/178/46 57/179/46 61/180/46
f 63/181/47 57/182/47 59/183/47
f 60/184/48 62/185/48 64/186/48
f 58/169/43 60/187/43 59/170/43
f 60/172/44 64/188/44 63/173/44
f 64/175/45 62/189/45 61/176/45
f 62/178/46 58/190/46 57/179/46
f 63/181/47 61/191/47 57/182/47
f 60/184/48 58/192/48 62/185/48
o Right_Hand
v 0.426156 0.013288 0.668699
v 0.426156 0.270221 0.623394
v 0.351614 0.013288 0.668699
v 0.351614 0.270221 0.623394
v 0.426156 0.000344 0.595289
v 0.426156 0.257277 0.549985
v 0.351614 0.000344 0.595289
v 0.351614 0.257277 0.549985
vn -0.0000 0.1736 0.9848
vn -1.0000 -0.0000 -0.0000
vn -0.0000 -0.1736 -0.9848
vn 1.0000 -0.0000 -0.0000
vn -0.0000 -0.9848 0.1736
vn -0.0000 0.9848 -0.1736
vt 0.062008 0.467761
vt 0.031744 0.250988
vt 0.062008 0.250988
vt 0.030758 0.467761
vt 0.000493 0.250988
vt 0.030758 0.250988
vt 0.124509 0.467761
vt 0.094244 0.250988
vt 0.124509 0.250988
vt 0.093260 0.467761
vt 0.062996 0.250988
vt 0.093260 0.250988
vt 0.062996 0.469743
vt 0.093260 0.530262
vt 0.062996 0.530262
vt 0.031744 0.469743
vt 0.062008 0.530262
vt 0.031744 0.530262
vt 0.031744 0.467761
vt 0.000493 0.467761
vt 0.094244 0.467761
vt 0.062996 0.467761
vt 0.093260 0.469743
vt 0.062008 0.469743
f 66/193/49 67/194/49 65/195/49
f 68/196/50 71/197/50 67/198/50
f 72/199/51 69/200/51 71/201/51
f 70/202/52 65/203/52 69/204/52
f 71/205/53 65/206/53 67/207/53
f 68/208/54 70/209/54 72/210/54
f 66/193/49 68/211/49 67/194/49
f 68/196/50 72/212/50 71/197/50
f 72/199/51 70/213/51 69/200/51
f 70/202/52 66/214/52 65/203/52
f 71/205/53 69/215/53 65/206/53
f 68/208/54 66/216/54 70/209/54
o Left_Ear
v 0.575951 0.438721 0.660453
v 0.575951 0.625076 0.660453
v 0.505905 0.438721 0.634958
v 0.505905 0.625076 0.634958
v 0.588699 0.438721 0.625429
v 0.588699 0.625076 0.625429
v 0.518652 0.438721 0.599935
v 0.518652 0.625076 0.599935
vn -0.3420 -0.0000 0.9397
vn -0.9397 -0.0000 -0.3420
vn 0.3420 -0.0000 -0.9397
vn 0.9397 -0.0000 0.3420
vn -0.0000 -1.0000 -0.0000
vn -0.0000 1.0000 -0.0000
vt 0.952631 0.967763
vt 0.922370 0.813489
vt 0.952631 0.813489
vt 0.921382 0.967763
vt 0.906743 0.813489
vt 0.921382 0.813489
vt 0.999506 0.967763
vt 0.969244 0.813489
vt 0.999506 0.813489
vt 0.968255 0.967763
vt 0.953623 0.813489
vt 0.968255 0.813489
vt 0.983878 0.999012
vt 0.953623 0.969740
vt 0.983878 0.969740
vt 0.922370 0.969740
vt 0.952772 0.999012
vt 0.922370 0.999012
vt 0.922370 0.967763
vt 0.906743 0.967763
vt 0.969244 0.967763
vt 0.953623 0.967763
vt 0.953623 0.999012
vt 0.952631 0.969740
f 74/217/55 75/218/55 73/219/55
f 76/220/56 79/221/56 75/222/56
f 80/223/57 77/224/57 79/225/57
f 78/226/58 73/227/58 77/228/58
f 79/229/59 73/230/59 75/231/59
f 76/232/60 78/233/60 80/234/60
f 74/217/55 76/235/55 75/218/55
f 76/220/56 80/236/56 79/221/56
f 80/223/57 78/237/57 77/224/57
f 78/226/58 74/238/58 73/227/58
f 79/229/59 77/239/59 73/230/59
f 76/232/60 74/240/60 78/233/60
o Right_Ear
v 0.494070 0.438721 0.636900
v 0.494070 0.625076 0.636900
v 0.424023 0.438721 0.662395
v 0.424023 0.625076 0.662395
v 0.481322 0.438721 0.601877
v 0.481322 0.625076 0.601877
v 0.411276 0.438721 0.627372
v 0.411276 0.625076 0.627372
vn 0.3420 -0.0000 0.9397
vn -0.9397 -0.0000 0.3420
vn -0.3420 -0.0000 -0.9397
vn 0.9397 -0.0000 -0.3420
vn -0.0000 -1.0000 -0.0000
vn -0.0000 1.0000 -0.0000
vt 0.858880 0.967760
vt 0.828619 0.813487
vt 0.858880 0.813487
vt 0.827633 0.967760
vt 0.812993 0.813487
vt 0.827633 0.813487
vt 0.905754 0.967760
vt 0.875495 0.813487
vt 0.905754 0.813487
vt 0.874504 0.967760
vt 0.859869 0.813487
vt 0.874504 0.813487
vt 0.890130 0.999010
vt 0.859869 0.969738
vt 0.890130 0.969738
vt 0.828619 0.969738
vt 0.858880 0.999010
vt 0.828619 0.999010
vt 0.828619 0.967760
vt 0.812993 0.967760
vt 0.875495 0.967760
vt 0.859869 0.967760
vt 0.859869 0.999010
vt 0.858880 0.969738
f 82/241/61 83/242/61 81/243/61
f 84/244/62 87/245/62 83/246/62
f 88/247/63 85/248/63 87/249/63
f 86/250/64 81/251/64 85/252/64
f 87/253/65 81/254/65 83/255/65
f 84/256/66 86/257/66 88/258/66
f 82/241/61 84/259/61 83/242/61
f 84/244/62 88/260/62 87/245/62
f 88/247/63 86/261/63 85/248/63
f 86/250/64 82/262/64 81/251/64
f 87/253/65 85/263/65 81/254/65
f 84/256/66 82/264/66 86/257/66
o Tail
v 0.556605 0.094142 0.305445
v 0.556605 0.199212 0.267202
v 0.444792 0.094142 0.305445
v 0.444792 0.199212 0.267202
v 0.556605 0.068647 0.235398
v 0.556605 0.173717 0.197156
v 0.444792 0.068647 0.235398
v 0.444792 0.173717 0.197156
vn -0.0000 0.3420 0.9397
vn -1.0000 -0.0000 -0.0000
vn -0.0000 -0.3420 -0.9397
vn 1.0000 -0.0000 -0.0000
vn -0.0000 -0.9397 0.3420
vn -0.0000 0.9397 -0.3420
vt 0.890135 0.749014
vt 0.844243 0.657235
vt 0.890135 0.657235
vt 0.843258 0.749014
vt 0.812996 0.657235
vt 0.843258 0.657235
vt 0.968257 0.749014
vt 0.922369 0.657235
vt 0.968257 0.657235
vt 0.921383 0.749014
vt 0.891120 0.657235
vt 0.921383 0.657235
vt 0.937006 0.811514
vt 0.891120 0.750989
vt 0.937006 0.750989
vt 0.890135 0.811514
vt 0.844243 0.750989
vt 0.890135 0.750989
vt 0.844243 0.749014
vt 0.812996 0.749014
vt 0.922369 0.749014
vt 0.891120 0.749014
vt 0.891120 0.811514
vt 0.844243 0.811514
f 90/265/67 91/266/67 89/267/67
f 92/268/68 95/269/68 91/270/68
f 96/271/69 93/272/69 95/273/69
f 94/274/70 89/275/70 93/276/70
f 95/277/71 89/278/71 91/279/71
f 92/280/72 94/281/72 96/282/72
f 90/265/67 92/283/67 91/266/67
f 92/268/68 96/284/68 95/269/68
f 96/271/69 94/285/69 93/272/69
f 94/274/70 90/286/70 89/275/70
f 95/277/71 93/287/71 89/278/71
f 92/280/72 90/288/72 94/281/72
