# Blender 5.0.1
# www.blender.org
o Cube
v 0.000000 0.000000 1.000000
v 0.000000 1.000000 1.000000
v 0.000000 0.000000 0.000000
v 0.000000 1.000000 -0.000000
v 1.000000 0.000000 1.000000
v 1.000000 1.000000 1.000000
v 1.000000 0.000000 0.000000
v 1.000000 1.000000 -0.000000
vn -1.0000 -0.0000 -0.0000
vn -0.0000 -0.0000 -1.0000
vn 1.0000 -0.0000 -0.0000
vn -0.0000 -0.0000 1.0000
vn -0.0000 -1.0000 -0.0000
vn -0.0000 1.0000 -0.0000
vt 0.999375 0.665834
vt 0.750625 0.334166
vt 0.999375 0.334166
vt 0.749375 0.665834
vt 0.500625 0.334166
vt 0.749375 0.334166
vt 0.499375 0.665834
vt 0.250625 0.334166
vt 0.499375 0.334166
vt 0.249375 0.665834
vt 0.000625 0.334166
vt 0.249375 0.334166
vt 0.499375 0.332500
vt 0.250625 0.000833
vt 0.499375 0.000833
vt 0.499375 0.999167
vt 0.250625 0.667500
vt 0.499375 0.667500
vt 0.750625 0.665834
vt 0.500625 0.665834
vt 0.250625 0.665834
vt 0.000625 0.665834
vt 0.250625 0.332500
vt 0.250625 0.999167
f 2/1/1 3/2/1 1/3/1
f 4/4/2 7/5/2 3/6/2
f 8/7/3 5/8/3 7/9/3
f 6/10/4 1/11/4 5/12/4
f 7/13/5 1/14/5 3/15/5
f 4/16/6 6/17/6 8/18/6
f 2/1/1 4/19/1 3/2/1
f 4/4/2 8/20/2 7/5/2
f 8/7/3 6/21/3 5/8/3
f 6/10/4 2/22/4 1/11/4
f 7/13/5 5/23/5 1/14/5
f 4/16/6 2/24/6 6/17/6
